<svg  viewBox="0 0 18 18" fill="none" xmlns="http://www.w3.org/2000/svg">
<path d="M3.80706 12.8382H13.5958V7.96547C13.5958 5.25051 11.4045 3.04945 8.70141 3.04945C5.99833 3.04945 3.80706 5.25051 3.80706 7.96547V12.8382ZM8.70141 1.65106C12.1764 1.65106 14.9942 4.4779 14.9942 7.96547V14.2365H2.40868V7.96547C2.40868 4.4779 5.22642 1.65106 8.70141 1.65106ZM6.95343 14.9357H10.4494C10.4494 15.3993 10.2652 15.8439 9.93742 16.1717C9.60961 16.4996 9.16501 16.6837 8.70141 16.6837C8.23782 16.6837 7.79321 16.4996 7.4654 16.1717C7.13759 15.8439 6.95343 15.3993 6.95343 14.9357Z" fill="white"/>
</svg>
