<svg  viewBox="0 0 16 17" fill="none" xmlns="http://www.w3.org/2000/svg">
<g filter="url(#filter0_di_15_152)">
<path d="M3.07149 7.41736C3.07149 6.92495 3.13411 6.44791 3.25137 5.99194C3.56587 6.00847 3.87881 5.93772 4.15561 5.7875C4.4324 5.63728 4.66227 5.41345 4.8198 5.14075C4.97733 4.86805 5.05638 4.5571 5.04822 4.24228C5.04006 3.92745 4.94501 3.62102 4.77357 3.35684C5.46177 2.67975 6.31102 2.189 7.24131 1.93085C7.38418 2.21176 7.60201 2.44766 7.87067 2.61243C8.13933 2.77719 8.44834 2.86441 8.7635 2.86441C9.07866 2.86441 9.38768 2.77719 9.65634 2.61243C9.925 2.44766 10.1428 2.21176 10.2857 1.93085C11.216 2.189 12.0652 2.67975 12.7534 3.35684C12.5818 3.62106 12.4866 3.92762 12.4784 4.24259C12.4702 4.55755 12.5492 4.86866 12.7069 5.14147C12.8645 5.41429 13.0945 5.63818 13.3715 5.78838C13.6484 5.93858 13.9616 6.00922 14.2762 5.99251C14.3935 6.44791 14.4561 6.92495 14.4561 7.41736C14.4561 7.90977 14.3935 8.38681 14.2762 8.84278C13.9617 8.82614 13.6486 8.89681 13.3718 9.04698C13.0949 9.19716 12.8649 9.42098 12.7073 9.6937C12.5497 9.96642 12.4706 10.2774 12.4788 10.5923C12.4869 10.9072 12.582 11.2137 12.7534 11.4779C12.0652 12.155 11.216 12.6457 10.2857 12.9039C10.1428 12.623 9.925 12.3871 9.65634 12.2223C9.38768 12.0575 9.07866 11.9703 8.7635 11.9703C8.44834 11.9703 8.13933 12.0575 7.87067 12.2223C7.60201 12.3871 7.38418 12.623 7.24131 12.9039C6.31102 12.6457 5.46177 12.155 4.77357 11.4779C4.9452 11.2137 5.0404 10.9071 5.04862 10.5921C5.05684 10.2772 4.97776 9.96606 4.82014 9.69325C4.66252 9.42043 4.4325 9.19654 4.15553 9.04634C3.87856 8.89614 3.56544 8.8255 3.2508 8.84221C3.13411 8.38738 3.07149 7.91034 3.07149 7.41736ZM5.80621 9.12514C6.16484 9.7462 6.2673 10.4606 6.12727 11.1312C6.35952 11.2963 6.60658 11.4392 6.8656 11.5581C7.38742 11.0907 8.06349 10.8324 8.76407 10.8329C9.48134 10.8329 10.1519 11.101 10.6625 11.5581C10.9216 11.4392 11.1686 11.2963 11.4009 11.1312C11.2571 10.4458 11.3714 9.73144 11.7219 9.12514C12.0718 8.51852 12.6333 8.06242 13.2988 7.8443C13.3251 7.56028 13.3251 7.27444 13.2988 6.99042C12.6331 6.77242 12.0714 6.31631 11.7214 5.70958C11.3709 5.10328 11.2565 4.38893 11.4003 3.70352C11.1681 3.53839 10.9209 3.39545 10.662 3.27657C10.1403 3.7439 9.46445 4.00216 8.76407 4.00181C8.06349 4.0023 7.38742 3.74403 6.8656 3.27657C6.60666 3.39545 6.35946 3.53839 6.12727 3.70352C6.27104 4.38893 6.15671 5.10328 5.80621 5.70958C5.45632 6.3162 4.89481 6.7723 4.22936 6.99042C4.20303 7.27444 4.20303 7.56028 4.22936 7.8443C4.89502 8.0623 5.45675 8.51841 5.80677 9.12514H5.80621ZM8.76407 9.12514C8.31114 9.12514 7.87676 8.94521 7.55649 8.62494C7.23622 8.30467 7.0563 7.87029 7.0563 7.41736C7.0563 6.96443 7.23622 6.53005 7.55649 6.20978C7.87676 5.88951 8.31114 5.70958 8.76407 5.70958C9.217 5.70958 9.65138 5.88951 9.97165 6.20978C10.2919 6.53005 10.4718 6.96443 10.4718 7.41736C10.4718 7.87029 10.2919 8.30467 9.97165 8.62494C9.65138 8.94521 9.217 9.12514 8.76407 9.12514ZM8.76407 7.98662C8.91505 7.98662 9.05984 7.92664 9.1666 7.81989C9.27336 7.71313 9.33333 7.56834 9.33333 7.41736C9.33333 7.26638 9.27336 7.12159 9.1666 7.01483C9.05984 6.90808 8.91505 6.8481 8.76407 6.8481C8.6131 6.8481 8.4683 6.90808 8.36155 7.01483C8.25479 7.12159 8.19481 7.26638 8.19481 7.41736C8.19481 7.56834 8.25479 7.71313 8.36155 7.81989C8.4683 7.92664 8.6131 7.98662 8.76407 7.98662Z" fill="white"/>
</g>
<defs>
<filter id="filter0_di_15_152" x="0.225193" y="0.586243" width="15.37" height="15.9393" filterUnits="userSpaceOnUse" color-interpolation-filters="sRGB">
<feFlood flood-opacity="0" result="BackgroundImageFix"/>
<feColorMatrix in="SourceAlpha" type="matrix" values="0 0 0 0 0 0 0 0 0 0 0 0 0 0 0 0 0 0 127 0" result="hardAlpha"/>
<feOffset dx="-1.13852" dy="1.70778"/>
<feGaussianBlur stdDeviation="0.284629"/>
<feColorMatrix type="matrix" values="0 0 0 0 0 0 0 0 0 0 0 0 0 0 0 0 0 0 0.1 0"/>
<feBlend mode="normal" in2="BackgroundImageFix" result="effect1_dropShadow_15_152"/>
<feBlend mode="normal" in="SourceGraphic" in2="effect1_dropShadow_15_152" result="shape"/>
<feColorMatrix in="SourceAlpha" type="matrix" values="0 0 0 0 0 0 0 0 0 0 0 0 0 0 0 0 0 0 127 0" result="hardAlpha"/>
<feOffset dx="-0.569258" dy="0.569258"/>
<feGaussianBlur stdDeviation="0.569258"/>
<feComposite in2="hardAlpha" operator="arithmetic" k2="-1" k3="1"/>
<feColorMatrix type="matrix" values="0 0 0 0 1 0 0 0 0 1 0 0 0 0 1 0 0 0 0.25 0"/>
<feBlend mode="normal" in2="shape" result="effect2_innerShadow_15_152"/>
</filter>
</defs>
</svg>
