<svg width="155" height="155" viewBox="0 0 74 67" fill="none" xmlns="http://www.w3.org/2000/svg">
<g opacity="0.67" filter="url(#filter0_f_15_163)">
<path d="M41.0143 26.6573C43.434 28.841 49.1124 31.1566 46.9286 33.5763C44.7449 35.996 32.263 42.9081 27.066 40.2364C24.6463 38.0526 29.2338 31.0212 31.4176 28.6015C33.6013 26.1818 38.5946 24.4735 41.0143 26.6573Z" fill="url(#paint0_linear_15_163)" fill-opacity="0.3"/>
</g>
<g filter="url(#filter1_ii_15_163)">
<path fill-rule="evenodd" clip-rule="evenodd" d="M37.2699 36.0878V36.0881H32.5188C30.1539 36.0881 28.2369 34.171 28.2369 31.8062C28.2369 29.4413 30.1539 27.5243 32.5188 27.5243H32.7534C33.5834 27.5243 34.3611 27.7482 35.0294 28.1388C35.8982 25.5648 38.3326 23.7114 41.1998 23.7114H41.5224C44.94 23.7114 47.7106 26.482 47.7106 29.8996C47.7106 33.3173 44.94 36.0878 41.5224 36.0878H37.2699Z" fill="white"/>
</g>
<defs>
<filter id="filter0_f_15_163" x="0.763121" y="0.035593" width="72.2723" height="66.4216" filterUnits="userSpaceOnUse" color-interpolation-filters="sRGB">
<feFlood flood-opacity="0" result="BackgroundImageFix"/>
<feBlend mode="normal" in="SourceGraphic" in2="BackgroundImageFix" result="shape"/>
<feGaussianBlur stdDeviation="12.8083" result="effect1_foregroundBlur_15_163"/>
</filter>
<filter id="filter1_ii_15_163" x="17.9902" y="15.1726" width="34.2744" height="27.1774" filterUnits="userSpaceOnUse" color-interpolation-filters="sRGB">
<feFlood flood-opacity="0" result="BackgroundImageFix"/>
<feBlend mode="normal" in="SourceGraphic" in2="BackgroundImageFix" result="shape"/>
<feColorMatrix in="SourceAlpha" type="matrix" values="0 0 0 0 0 0 0 0 0 0 0 0 0 0 0 0 0 0 127 0" result="hardAlpha"/>
<feOffset dx="4.55407" dy="-8.53888"/>
<feGaussianBlur stdDeviation="8.53888"/>
<feComposite in2="hardAlpha" operator="arithmetic" k2="-1" k3="1"/>
<feColorMatrix type="matrix" values="0 0 0 0 0 0 0 0 0 0 0 0 0 0 0 0 0 0 0.2 0"/>
<feBlend mode="normal" in2="shape" result="effect1_innerShadow_15_163"/>
<feColorMatrix in="SourceAlpha" type="matrix" values="0 0 0 0 0 0 0 0 0 0 0 0 0 0 0 0 0 0 127 0" result="hardAlpha"/>
<feOffset dx="-10.2467" dy="6.26184"/>
<feGaussianBlur stdDeviation="8.53888"/>
<feComposite in2="hardAlpha" operator="arithmetic" k2="-1" k3="1"/>
<feColorMatrix type="matrix" values="0 0 0 0 1 0 0 0 0 1 0 0 0 0 1 0 0 0 1 0"/>
<feBlend mode="normal" in2="effect1_innerShadow_15_163" result="effect2_innerShadow_15_163"/>
</filter>
<linearGradient id="paint0_linear_15_163" x1="29.6357" y1="41.3063" x2="43.6907" y2="25.5329" gradientUnits="userSpaceOnUse">
<stop stop-color="#254659"/>
<stop offset="1" stop-color="#023553"/>
</linearGradient>
</defs>
</svg>
