<svg width="15" height="15" viewBox="0 0 15 15" fill="none" xmlns="http://www.w3.org/2000/svg">
<path d="M6.86233 11.4021H2.31758V10.0038H6.86233C7.30894 10.0039 7.74699 10.1263 8.12902 10.3576C8.51104 10.589 8.82248 10.9204 9.02959 11.3161C9.2367 11.7118 9.33158 12.1566 9.30394 12.6024C9.27631 13.0481 9.12722 13.4778 8.87283 13.8449C8.61844 14.2119 8.26845 14.5024 7.86077 14.6848C7.4531 14.8672 7.00329 14.9345 6.56008 14.8795C6.11687 14.8245 5.69717 14.6492 5.34644 14.3728C4.99571 14.0963 4.72733 13.7291 4.57038 13.3109L5.87996 12.8194C5.94721 12.9986 6.06222 13.156 6.21252 13.2745C6.36282 13.393 6.54269 13.4681 6.73264 13.4917C6.92258 13.5153 7.11536 13.4865 7.29009 13.4083C7.46482 13.3302 7.61482 13.2057 7.72386 13.0484C7.8329 12.8911 7.89681 12.7069 7.90867 12.5159C7.92053 12.3249 7.87988 12.1342 7.79113 11.9646C7.70238 11.7951 7.56891 11.653 7.40519 11.5538C7.24147 11.4547 7.05374 11.4022 6.86233 11.4021ZM3.01677 7.20699H12.4559C12.9025 7.20715 13.3405 7.32952 13.7226 7.56085C14.1046 7.79218 14.416 8.12364 14.6231 8.51933C14.8302 8.91501 14.9251 9.35983 14.8975 9.80558C14.8699 10.2513 14.7208 10.681 14.4664 11.0481C14.212 11.4152 13.862 11.7056 13.4543 11.888C13.0466 12.0704 12.5968 12.1377 12.1536 12.0827C11.7104 12.0277 11.2907 11.8525 10.94 11.576C10.5893 11.2995 10.3209 10.9323 10.1639 10.5142L11.4735 10.0226C11.5408 10.2018 11.6558 10.3592 11.8061 10.4777C11.9564 10.5963 12.1362 10.6714 12.3262 10.695C12.5161 10.7185 12.7089 10.6897 12.8836 10.6116C13.0584 10.5334 13.2084 10.4089 13.3174 10.2516C13.4264 10.0943 13.4904 9.91017 13.5022 9.71914C13.5141 9.5281 13.4734 9.33746 13.3847 9.16787C13.2959 8.99829 13.1625 8.85622 12.9987 8.75707C12.835 8.65791 12.6473 8.60546 12.4559 8.60538H3.01677C2.46046 8.60538 1.92693 8.38438 1.53356 7.99101C1.14018 7.59764 0.919189 7.06411 0.919189 6.5078C0.919189 5.95149 1.14018 5.41796 1.53356 5.02459C1.92693 4.63121 2.46046 4.41022 3.01677 4.41022H8.95991C9.15131 4.41014 9.33905 4.35768 9.50277 4.25853C9.66649 4.15938 9.79996 4.01731 9.88871 3.84772C9.97746 3.67814 10.0181 3.4875 10.0062 3.29646C9.99439 3.10542 9.93048 2.92127 9.82144 2.76396C9.7124 2.60665 9.5624 2.48218 9.38767 2.40403C9.21294 2.32589 9.02016 2.29705 8.83022 2.32064C8.64027 2.34422 8.4604 2.41934 8.3101 2.53786C8.1598 2.65637 8.04479 2.81375 7.97754 2.99295L6.66795 2.50212C6.86965 1.9657 7.25316 1.51706 7.75166 1.23435C8.25016 0.951646 8.83205 0.852805 9.39594 0.95505C9.95983 1.0573 10.47 1.35415 10.8375 1.79388C11.205 2.23361 11.4066 2.78835 11.4071 3.36143C11.4071 4.01046 11.1493 4.63291 10.6903 5.09184C10.2314 5.55078 9.60894 5.8086 8.95991 5.8086H3.01677C2.83133 5.8086 2.65349 5.88227 2.52236 6.01339C2.39124 6.14452 2.31758 6.32236 2.31758 6.5078C2.31758 6.69324 2.39124 6.87108 2.52236 7.0022C2.65349 7.13333 2.83133 7.20699 3.01677 7.20699Z" fill="white"/>
</svg>
